<?xml version="1.0" standalone="no"?>
<!DOCTYPE svg PUBLIC "-//W3C//DTD SVG 20010904//EN"
 "http://www.w3.org/TR/2001/REC-SVG-20010904/DTD/svg10.dtd">
<svg version="1.0" xmlns="http://www.w3.org/2000/svg"
 width="300.000000pt" height="300.000000pt" viewBox="0 0 300.000000 300.000000"
 preserveAspectRatio="xMidYMid meet">
<metadata>
Created by potrace 1.14, written by Peter Selinger 2001-2017
</metadata>
<g transform="translate(0.000000,300.000000) scale(0.100000,-0.100000)"
fill="#000000" stroke="none">
<path d="M1342 2989 c-68 -8 -114 -16 -149 -24 -13 -3 -33 -7 -44 -10 -12 -2
-45 -11 -73 -19 -28 -8 -54 -16 -58 -16 -22 -3 -218 -94 -271 -126 -460 -276
-739 -756 -740 -1274 -1 -181 4 -229 38 -374 91 -385 364 -751 702 -943 146
-83 291 -138 463 -174 153 -33 429 -33 585 0 289 61 544 196 748 395 167 163
262 306 358 539 15 37 26 67 23 67 -2 0 2 14 11 30 9 17 13 30 11 30 -3 0 -1
12 5 26 5 15 12 43 15 63 3 20 7 42 10 50 21 64 25 393 5 511 -60 351 -240
671 -506 897 -204 173 -471 299 -715 338 -19 3 -46 8 -60 11 -41 8 -290 10
-358 3z"/>
</g>
</svg>
